<?xml version="1.0" encoding="UTF-8"?>
<svg width="131px" height="160px" viewBox="0 0 131 160" version="1.1" xmlns="http://www.w3.org/2000/svg" xmlns:xlink="http://www.w3.org/1999/xlink">
    <!-- Generator: Sketch 49.1 (51147) - http://www.bohemiancoding.com/sketch -->
    <title>Group 2</title>
    <desc>Created with Sketch.</desc>
    <defs></defs>
    <g id="Mobile---Survey-" stroke="none" stroke-width="1" fill="none" fill-rule="evenodd">
        <g id="Survey-Q2" transform="translate(-142.000000, -446.000000)" fill="#FFFFFF">
            <g id="Group-9" transform="translate(0.000000, 399.000000)">
                <g id="Group" transform="translate(91.000000, 47.000000)">
                    <g id="Group-2" transform="translate(51.000000, 0.000000)">
                        <path d="M76.9606737,11.7834105 C76.9606737,18.0136421 71.7369263,23.2373895 65.3423158,23.2373895 C59.1120842,23.2373895 53.7239579,18.0136421 53.7239579,11.7834105 C53.7239579,5.38206316 58.9477053,0.329431579 65.3423158,0.329431579 C71.9080421,0.164951579 76.9606737,5.38863158 76.9606737,11.7834105 Z M65.3423158,137.092042 C58.9409684,137.092042 53.7239579,142.144674 53.7239579,148.546023 C53.7239579,154.776253 59.1120842,160 65.3423158,160 C71.7436632,160 76.9606737,154.776253 76.9606737,148.546023 C76.9606737,142.144674 71.9080421,136.921095 65.3423158,137.092042 Z M107.447579,121.256589 C107.447579,127.486821 112.671326,132.710568 119.065937,132.710568 C125.296168,132.710568 130.684295,127.486821 130.684295,121.256589 C130.684295,114.855242 125.460547,109.802611 119.065937,109.802611 C112.500211,109.638147 107.447579,114.861811 107.447579,121.256589 Z M119.065937,50.6915368 C125.467284,50.6915368 130.684295,45.6389053 130.684295,39.2375579 C130.684295,33.0073263 125.296168,27.7835789 119.065937,27.7835789 C112.664589,27.7835789 107.447579,33.0073263 107.447579,39.2375579 C107.447579,45.6389053 112.500211,50.8624842 119.065937,50.6915368 Z M11.6183579,109.810695 C5.21701053,109.810695 0,114.863326 0,121.264674 C0,127.494905 5.38812632,132.718653 11.6183579,132.718653 C18.0197053,132.718653 23.2367158,127.494905 23.2367158,121.264674 C23.2367158,114.863326 18.1840842,109.639747 11.6183579,109.810695 Z M23.2367158,39.2389053 C23.2367158,33.0086737 18.0129684,27.7849263 11.6183579,27.7849263 C5.38812632,27.7849263 0,33.0086737 0,39.2389053 C0,45.6402526 5.22374737,50.6928842 11.6183579,50.6928842 C18.1840842,50.8639326 23.2367158,45.6402526 23.2367158,39.2389053 Z M65.3419789,27.9560421 C66.0130358,27.9560421 66.6906611,28.4626189 66.6906611,29.3047242 L66.6906611,52.0415663 C76.6248084,52.5481432 85.3887663,58.1074189 89.9344505,66.3573558 L105.263461,51.0283453 C105.770038,50.5217684 106.612143,50.5217684 107.118787,51.0283453 C107.625364,51.5349221 107.625364,52.3770274 107.118787,52.8836716 L91.1187874,68.8836716 C92.8029979,72.4232084 93.6451032,76.2915032 93.6451032,80.5020295 C93.6451032,84.54144 92.8029979,88.4164716 91.2899032,91.9560084 L107.118787,107.784893 C107.625364,108.291469 107.625364,109.133575 107.118787,109.640219 C106.612211,110.146796 105.770105,110.146796 105.263461,109.640219 L90.1055663,94.4823242 C85.3884295,102.732261 76.8029979,108.462619 66.6984084,108.969229 L66.6984084,131.370914 C66.6984084,132.041971 66.1918316,132.719596 65.3497263,132.719596 C64.6786695,132.719596 64.0010442,132.213019 64.0010442,131.370914 L63.9944589,108.627335 C53.8891958,108.120758 45.1329853,102.561482 40.5873011,94.1404295 L25.4294063,109.298324 C24.9228295,109.804901 24.0807242,109.804901 23.57408,109.298324 C23.0674358,108.791747 23.0675032,107.949642 23.57408,107.442998 L39.4029642,91.6141137 C37.8898021,88.0745768 37.0477642,84.2062821 37.0477642,80.1601347 C37.0477642,75.9496084 37.8898695,72.0745768 39.57408,68.5417768 L23.7451958,52.7128926 C23.2386189,52.2063158 23.2386189,51.3642105 23.7451958,50.8575663 C24.2517726,50.3509895 25.0938779,50.3509895 25.6005221,50.8575663 L40.9295326,66.1865768 C45.6466695,57.93664 54.2321011,52.3773979 64.3366905,51.8707874 L64.3301221,29.1339453 C64.1656421,28.4628884 64.6722189,27.9563116 65.3432758,27.9563116 L65.3419789,27.9560421 Z M65.3419789,54.3964632 C51.0261895,54.3964632 39.5718737,66.0148211 39.5718737,80.1665684 C39.5718737,94.4823579 51.1902316,105.936674 65.3419789,105.936674 C79.6577684,105.936674 91.1120842,94.3183158 91.1120842,80.1665684 C91.1120842,66.0218947 79.4871579,54.3964632 65.3419789,54.3964632 Z M75.2761263,69.7254737 C75.2761263,64.1662316 70.8944842,59.7913263 65.3419789,59.7913263 C59.9538526,59.7913263 55.4078316,64.3373474 55.4078316,69.7254737 C55.4078316,75.2847158 59.9538526,79.6596211 65.3419789,79.6596211 C70.9012211,79.8306695 75.2761263,75.4490947 75.2761263,69.7254737 Z M72.2497684,69.8899537 C72.2497684,73.9293642 69.2168421,76.9622905 65.3418105,76.9622905 C61.3024,76.9622905 58.4338526,73.7649853 58.4338526,69.8899537 C58.4338526,66.1860379 61.6311579,62.8176168 65.3418105,62.8176168 C69.3812211,62.6531368 72.2497684,65.8505432 72.2497684,69.8899537 Z M80.8353684,93.8107958 C81.3419453,86.2318484 79.3222063,80.5082274 76.1182316,79.1595116 C72.0788211,77.3041853 67.5260632,81.5147116 67.0261895,82.1924379 C66.1840842,83.0345432 65.6775074,83.2055916 65.1708632,83.2055916 C64.9998147,83.2055916 64.4998063,83.2055916 63.3155368,82.1924379 C62.9800084,81.5213811 58.4340211,77.6464168 54.3878737,79.1595116 C51.3549474,80.5081937 49.3352421,86.2318484 49.8418526,93.8107958 L80.8353684,93.8107958 Z M55.5722105,82.0213221 C57.4275368,81.1792168 60.4537263,83.3700042 61.4669474,84.3765221 C62.8156295,85.5541558 63.9932632,86.2318484 65.1708632,86.2318484 C66.5195453,86.2318484 67.6971789,85.3897432 68.8747789,84.3765221 C69.8879326,83.5344168 72.9141895,81.1792168 74.7695158,82.0213221 C75.7826695,82.3568505 77.4669474,84.2121432 77.8024421,91.1133642 L52.8811789,91.1133642 C52.8811789,84.0410274 54.5653895,82.3568168 55.5720421,82.0213221 L55.5722105,82.0213221 Z" id="Page-1"></path>
                    </g>
                </g>
            </g>
        </g>
    </g>
</svg>