<?xml version="1.0" encoding="UTF-8"?>
<svg width="160px" height="160px" viewBox="0 0 160 160" version="1.1" xmlns="http://www.w3.org/2000/svg" xmlns:xlink="http://www.w3.org/1999/xlink">
    <!-- Generator: Sketch 49.1 (51147) - http://www.bohemiancoding.com/sketch -->
    <title>Page 1</title>
    <desc>Created with Sketch.</desc>
    <defs></defs>
    <g id="Symbols" stroke="none" stroke-width="1" fill="none" fill-rule="evenodd">
        <g id="daytime/daytime" transform="translate(-127.000000, -47.000000)" fill="#F8E71C">
            <g id="Group-3">
                <g id="Group" transform="translate(127.000000, 47.000000)">
                    <g id="Page-1">
                        <path d="M118.845718,42.3288177 C97.9773012,21.4459497 64.2405076,21.4459497 43.3710601,42.3288177 C33.3294094,52.377422 27.654321,65.7893083 27.654321,79.9672642 C27.654321,94.14522 33.3191061,107.545249 43.3710601,117.605711 C53.4127109,127.654315 66.8153163,133.333333 80.983461,133.333333 C95.1516058,133.333333 108.542362,127.664626 118.595862,117.605711 C128.637513,107.557106 134.312601,94.14522 134.312601,79.9672642 C134.564158,65.7903394 129.150877,52.3789685 118.847521,42.3288177 L118.845718,42.3288177 Z M115.243665,114.239335 C106.228229,123.261015 94.123846,128.41626 81.2451663,128.41626 C68.3664865,128.41626 56.2615888,123.522901 47.2466675,114.239335 C38.231231,105.217656 33.0795531,93.1048915 33.0795531,80.2172936 C33.0795531,67.3296957 37.9695258,55.2164156 47.2466675,46.1952517 C56.5238092,36.9116858 68.8795936,32.0183269 81.2451663,32.0183269 C93.6112541,32.0183269 105.977342,36.6601098 115.243665,46.1952517 C124.259102,55.2169311 129.410779,67.3296957 129.410779,80.2172936 C129.410779,93.1048915 124.510761,104.966596 115.243665,114.239335 Z" id="Fill-1"></path>
                        <path d="M126.04006,36.5432099 C126.818605,36.5432099 127.33427,36.2803904 127.849936,35.7648441 L144.411687,19.206909 C145.443018,18.1758163 145.443018,16.6190847 144.411687,15.5880955 C143.380357,14.5571063 141.823267,14.5570028 140.79204,15.5880955 L124.230288,32.1460306 C123.198958,33.1771233 123.198958,34.7338549 124.230288,35.7648441 C124.745953,36.2803904 125.261618,36.5432099 126.040164,36.5432099 L126.04006,36.5432099 Z" id="Fill-2"></path>
                        <path d="M32.1499818,124.230071 L15.5883089,140.788006 C14.5569834,141.819099 14.5569834,143.37583 15.5883089,144.406819 C16.1039717,144.922366 16.8825132,145.185185 17.3981759,145.185185 C17.9138386,145.185185 18.6923802,144.922366 19.2080429,144.406819 L35.7697158,127.848884 C36.8010412,126.817792 36.8010412,125.26106 35.7697158,124.230071 C34.7383903,123.199082 33.1813073,123.198978 32.1500853,124.230071 L32.1499818,124.230071 Z" id="Fill-3"></path>
                        <path d="M127.849884,124.230108 C126.818556,123.199017 125.261471,123.199017 124.230247,124.230108 C123.199023,125.261199 123.198919,126.817928 124.230247,127.848915 L140.791949,144.406821 C141.307613,144.922366 142.086156,145.185185 142.601819,145.185185 C143.117483,145.185185 143.896026,144.922366 144.41169,144.406821 C145.443017,143.37573 145.443017,141.819001 144.41169,140.788014 L127.849884,124.230108 Z" id="Fill-4"></path>
                        <path d="M32.149953,35.7648455 C32.6656191,36.2803909 33.4441657,36.5432099 33.9598319,36.5432099 C34.475498,36.5432099 35.2540446,36.2803909 35.7697107,35.7648455 C36.8010429,34.7337546 36.8010429,33.1770258 35.7697107,32.1460384 L19.2079293,15.588133 C18.1765971,14.5570421 16.6195039,14.5570421 15.5882752,15.588133 C14.5570465,16.6192238 14.5569429,18.1759527 15.5882752,19.20694 L32.149953,35.7648455 Z" id="Fill-5"></path>
                        <path d="M157.407407,80 L141.851852,80 C140.292252,80 139.259259,80.9838025 139.259259,82.4691358 C139.259259,83.9544691 140.292252,84.9382716 141.851852,84.9382716 L157.407407,84.9382716 C158.967007,84.9382716 160,83.9544691 160,82.4691358 C160,80.9838025 158.967007,80 157.407407,80 Z" id="Fill-6"></path>
                        <path d="M20.7407407,82.4691358 C20.7407407,80.9838025 19.7077481,80 18.1481481,80 L2.59259259,80 C1.03299259,80 0,80.9838025 0,82.4691358 C0,83.9544691 1.03299259,84.9382716 2.59259259,84.9382716 L18.1481481,84.9382716 C19.7077481,84.9382716 20.7407407,83.9544691 20.7407407,82.4691358 Z" id="Fill-7"></path>
                        <path d="M77.5308642,139.259259 C76.0455309,139.259259 75.0617284,140.292252 75.0617284,141.851852 L75.0617284,157.407407 C75.0617284,158.967007 76.0455309,160 77.5308642,160 C79.0161975,160 80,158.967007 80,157.407407 L80,141.851852 C80,140.292252 79.0161975,139.259259 77.5308642,139.259259 Z" id="Fill-8"></path>
                        <path d="M77.5308642,20.7407407 C79.0161975,20.7407407 80,19.7077481 80,18.1481481 L80,2.59259259 C80,1.03299259 79.0161975,0 77.5308642,0 C76.0455309,0 75.0617284,1.03299259 75.0617284,2.59259259 L75.0617284,18.1481481 C75.0617284,19.7077481 76.0455309,20.7407407 77.5308642,20.7407407 Z" id="Fill-9"></path>
                    </g>
                </g>
            </g>
        </g>
    </g>
</svg>