<?xml version="1.0" encoding="UTF-8"?>
<svg width="151px" height="160px" viewBox="0 0 151 160" version="1.1" xmlns="http://www.w3.org/2000/svg" xmlns:xlink="http://www.w3.org/1999/xlink">
    <!-- Generator: Sketch 49.1 (51147) - http://www.bohemiancoding.com/sketch -->
    <title>Page 1</title>
    <desc>Created with Sketch.</desc>
    <defs></defs>
    <g id="Mobile---Survey-" stroke="none" stroke-width="1" fill="none" fill-rule="evenodd">
        <g id="Activity-selection---Day" transform="translate(-121.000000, -446.000000)" fill="#8CD9F8">
            <g id="Group" transform="translate(42.000000, 446.000000)">
                <path d="M212.332741,80.3925748 C211.93922,80.3925748 211.738607,80.3925748 211.345086,80.1919625 L171.052741,70.5161106 C169.278044,70.1225896 168.089778,68.540802 168.089778,66.7661847 L168.082074,40.2930983 C168.082074,32.5925551 168.869116,26.6666291 170.651556,21.7283575 C170.651556,21.5277452 170.852168,21.5277452 170.852168,21.3348365 L171.446301,20.3471822 C173.028089,16.1958736 174.609956,13.433602 176.384573,11.257602 C178.359881,8.68812049 181.122153,6.52002173 184.085116,4.54471309 C187.642252,2.36871309 193.568178,-7.70370371e-05 198.899931,-7.70370371e-05 C205.026548,-7.70370371e-05 213.321264,2.36871309 217.07119,4.73750321 C221.222499,7.10629333 224.378252,10.4627378 226.554252,14.6140464 C228.730252,19.1588365 229.717906,24.691281 229.717906,31.2034785 L229.717906,31.9905205 C229.717906,39.4982736 228.336731,46.604644 225.767289,53.3258291 C223.398499,60.038718 221.222499,65.7718538 219.24719,70.5094341 L215.890746,78.0248909 C215.296612,79.4060662 213.915437,80.393681 212.33361,80.393681 L212.332741,80.3925748 Z M175.983111,63.6024514 L209.956444,71.7043773 L211.731141,67.3602785 C213.706449,62.8154884 215.882449,57.0902538 218.050548,50.3694637 C220.419338,44.4435378 221.607684,38.1241304 221.607684,31.804723 L221.607684,31.017681 C221.607684,25.6859279 220.820642,21.1411378 219.238894,17.9774835 C217.857719,15.408002 215.681758,13.0392119 212.919486,11.4573847 C210.157215,9.87559704 203.243635,7.90024889 198.698844,7.90024889 C195.3424,7.90024889 190.596919,9.67494519 187.834647,11.2566933 C185.465857,12.6378686 183.683338,14.2196563 182.109412,15.9942736 C180.921146,17.5760612 179.740622,19.9448909 178.359486,23.3013353 C178.359486,23.5019477 178.359486,23.5019477 178.158874,23.6948563 L177.958262,24.6902341 C176.577086,28.6408514 175.982953,33.7798143 175.982953,40.2920119 L175.983111,63.6024514 Z M95.9831111,107.452328 C94.4013235,107.452328 93.0201481,106.464674 92.4259753,105.083538 L89.2700247,97.776476 C87.294716,93.0388958 85.118716,87.1129699 82.7499259,80.3921798 C80.1804444,73.2779081 79,65.9708464 79,58.8652662 L79,58.0782242 C79,51.5581254 79.9876543,46.025681 82.1636543,41.4887921 C84.7331358,36.7512119 87.6960988,33.5875575 91.8395062,31.4115575 C95.9908148,29.0427674 102.503012,27.4609402 108.830321,27.4609402 C114.956938,27.4609402 120.882864,29.0427279 124.833481,31.4115575 C127.796444,33.1862538 130.558716,35.3621748 132.534025,37.9316563 C134.308721,40.1076563 135.890469,43.0706193 137.472296,47.0212365 L138.06643,48.0088909 C138.06643,48.2095032 138.267042,48.2095032 138.267042,48.4024119 C140.041738,53.5413748 141.029314,59.6600909 141.029314,66.9671526 L141.029314,93.4323378 C141.029314,95.2070341 139.841047,96.7887822 138.066351,97.1822637 L97.371042,107.058807 C96.5762963,107.452328 96.3833877,107.452328 95.982163,107.452328 L95.9831111,107.452328 Z M108.62963,35.3535625 C102.703704,35.3535625 97.7654321,36.9353501 95.396642,38.3165254 C92.6343704,39.6977007 90.6590617,41.8736612 89.0772346,45.0294143 C87.4954469,48.1930686 86.7084444,52.7299575 86.7084444,58.0696119 L86.7084444,58.8566538 C86.7084444,65.1760612 87.8967111,71.4954686 90.0648889,77.6220859 C92.433679,84.3349748 94.609679,89.8674193 96.5849877,94.6129007 L98.359684,98.7642094 L132.726104,90.4694933 L132.726104,67.158876 C132.726104,61.0322588 131.939062,55.7005057 130.550104,51.5570983 L130.156583,50.569444 C130.156583,50.3688316 129.95597,50.3688316 129.95597,50.175923 C128.574795,46.8194785 127.386489,44.4506884 126.206044,42.8688612 C124.824869,41.0941649 122.8496,39.5124168 120.48081,38.131281 C118.30481,36.7423822 114.161402,35.353602 108.628958,35.353602 L108.62963,35.3535625 Z M179.146173,132.738254 L178.752652,132.738254 C174.601343,132.738254 171.44559,131.951212 169.0768,130.369464 C168.683279,130.168851 168.482667,130.168851 168.289758,129.975943 C166.515062,128.594767 164.933314,127.213671 163.744968,125.631844 C163.744968,125.431232 163.544356,125.431232 163.544356,125.238323 C162.356089,123.455923 161.368356,121.874175 160.380701,120.09936 C158.999526,117.529879 158.405393,114.173434 158.405393,110.423508 L158.405393,108.4482 C158.405393,103.116446 159.593659,97.9774835 161.761837,92.6457304 L165.511763,84.150323 C166.298805,82.3756267 168.274035,81.3880514 170.056553,81.974323 L207.788899,91.8508662 C208.776553,92.0514785 209.764207,92.8385205 210.157689,93.8261748 C210.751822,94.8138291 210.751822,96.0021748 210.358301,96.9898291 L208.382993,103.702718 C206.801205,108.64099 205.219338,112.792298 203.444721,116.341533 L203.0512,117.128575 C201.670025,120.091538 199.887546,122.853809 197.719447,124.829118 C195.944751,126.603814 193.969521,127.992772 191.793521,129.373908 L191.006479,129.767429 C190.805867,129.767429 190.805867,129.968041 190.612958,129.968041 C187.048119,131.951054 183.298193,132.738017 179.146884,132.738017 L179.146173,132.738254 Z M172.626074,123.255192 C172.826686,123.455804 173.220207,123.455804 173.413116,123.648713 C174.40077,124.435755 176.175388,124.83698 178.94556,124.83698 L179.339081,124.83698 C182.302044,124.83698 184.670835,124.242846 187.039625,123.255192 L187.633758,122.861671 C189.609067,121.480496 191.190894,120.492881 192.371338,119.304535 C193.752514,117.92336 195.13361,115.948091 196.121264,113.772091 L196.514785,112.784437 C198.096573,109.620782 199.67844,105.870856 201.059575,101.326066 L202.04723,98.5637946 L171.631427,90.66256 L168.876859,95.801523 C167.102163,99.9528316 166.307378,104.29693 166.307378,108.440338 L166.307378,110.415646 C166.307378,112.985128 166.700899,114.960437 167.495644,116.542264 C168.282686,117.923439 168.87682,119.304535 169.864435,120.693572 C170.651477,121.681227 171.446222,122.468269 172.626706,123.25535 L172.626074,123.255192 Z M132.726815,159.999881 L132.132681,159.999881 C127.395101,159.999881 123.637274,159.21284 120.481521,157.237612 C117.518558,155.462916 115.342558,154.073958 113.367249,152.098649 C110.998459,149.922649 109.023151,146.566204 108.035496,144.197414 L107.641975,143.410372 C105.867279,139.853237 104.285531,135.709829 102.703704,130.771558 L100.527704,124.058669 C100.134183,123.071014 100.327091,121.882669 100.921225,120.895014 C101.515358,119.90736 102.3024,119.313227 103.490706,118.919706 L141.414657,110.030817 C143.189353,109.637296 145.164583,110.424338 145.959447,112.206817 L149.516583,119.71457 C151.885373,124.853533 153.073719,129.984595 153.073719,135.517039 L153.073719,137.492348 C153.073719,141.242274 152.479585,144.606619 151.09841,147.1682 C150.110756,149.143508 149.123101,150.918125 147.934756,152.499953 C146.746489,154.08174 145.172484,155.663607 143.197175,157.044743 C140.627694,159.012326 137.070558,160 132.726459,160 L132.726815,159.999881 Z M109.416198,126.02655 L110.20324,128.596032 C111.584415,133.140822 113.166202,136.890748 114.74803,140.054402 L115.141551,140.841444 C116.329817,143.410925 117.711032,145.386234 118.698686,146.373888 L118.899299,146.574501 C120.087565,147.762767 122.062953,149.143982 124.431743,150.525118 C126.20644,151.512772 128.775842,152.106906 132.132286,152.106906 L132.72642,152.099182 C136.283556,152.099182 137.664691,151.31214 138.258864,150.910916 L138.459477,150.710303 C139.840652,149.722649 140.828267,148.734995 141.221748,148.140822 C141.221748,147.940209 141.42236,147.940209 141.42236,147.747301 C142.209402,146.960259 142.803536,145.571301 143.59836,143.796683 C144.385402,142.214896 144.786627,140.239548 144.786627,137.670066 L144.786627,135.694758 C144.786627,131.350659 143.798973,127.400041 142.024356,123.248733 L139.848356,118.703943 L109.416198,126.02655 Z" id="Page-1"></path>
            </g>
        </g>
    </g>
</svg>