<?xml version="1.0" encoding="UTF-8"?>
<svg width="90px" height="159px" viewBox="0 0 90 159" version="1.1" xmlns="http://www.w3.org/2000/svg" xmlns:xlink="http://www.w3.org/1999/xlink">
    <!-- Generator: Sketch 49.1 (51147) - http://www.bohemiancoding.com/sketch -->
    <title>Page 1</title>
    <desc>Created with Sketch.</desc>
    <defs></defs>
    <g id="Mobile---Survey-" stroke="none" stroke-width="1" fill="none" fill-rule="evenodd">
        <g id="Activity-selection---Day" transform="translate(-162.000000, -110.000000)" fill="#8CD9F8">
            <g id="Group-3" transform="translate(82.000000, 110.000000)">
                <g id="Page-1" transform="translate(80.000000, 0.000000)">
                    <path d="M9.71324138,81.3017822 C2.66207586,103.628911 4.27302759,124.22297 14.2240966,138.052673 C20.9716621,147.427724 30.8665793,152.891802 42.3110621,153.634299 C41.840149,139.933861 37.9613655,122.093703 32.3601517,108.238653 C28.4937724,98.6655842 20.5627379,82.953901 9.71387586,81.3016238 M45.0006345,158.999844 C30.8797448,158.999844 18.0969793,152.489904 9.93118621,141.135287 C-1.31470345,125.510257 -2.98767586,102.378851 5.33372414,77.6754851 C5.69929724,76.6049426 6.7092669,75.8809505 7.84310345,75.8809505 C32.534,75.8809505 47.6473793,127.985505 47.6473793,156.364125 C47.6473793,157.818334 46.4639262,159.000323 45.0015862,159.000323" id="Fill-1"></path>
                    <path d="M80.2867586,81.3017822 C69.4374207,82.9540594 61.506069,98.6657426 57.6404828,108.238812 C52.039269,122.09402 48.1603586,139.934653 47.6895724,153.634454 C59.1337379,152.89188 69.0288138,147.427721 75.7765379,138.052832 C85.7274483,124.222337 87.3385586,103.629069 80.2873931,81.3019406 M45.0006345,159.000156 C43.5383421,159.000156 42.3548414,157.818231 42.3548414,156.363957 C42.3548414,127.985347 57.4671103,75.8807921 82.1591172,75.8807921 C83.2930014,75.8807921 84.3030345,76.6048 84.6684966,77.6753267 C92.9898966,102.378693 91.3169241,125.50899 80.0710345,141.135129 C71.9046069,152.49037 59.122,158.999677 45.0015862,158.999677" id="Fill-2"></path>
                    <path d="M66.8293793,89.5948515 C65.5901552,89.5948515 64.4871862,88.7223287 64.2394207,87.4598812 C60.8625448,70.2448317 53.1297862,58.6725545 45.0003172,58.6725545 C36.8648207,58.6725545 29.1319034,70.2443564 25.7612138,87.4598812 C25.4823903,88.8955248 24.0820552,89.8299406 22.6631931,89.5452673 C21.2256931,89.266804 20.290069,87.8806337 20.5751103,86.4512475 C24.5096966,66.3641188 34.0949862,53.3946139 44.9995241,53.3946139 C55.9040621,53.3946139 65.4901448,66.3649109 69.4239379,86.4512475 C69.7089634,87.880697 68.7733393,89.2667723 67.3420414,89.5452673 C67.1685421,89.5824 66.9950586,89.5947723 66.8277614,89.5947723" id="Fill-3"></path>
                    <path d="M11.7086897,24.0376238 C12.7806166,26.7666535 15.5317655,31.7974653 20.7549862,35.615604 C26.5049862,39.8234455 33.3455034,41.1354455 41.1345724,39.5389307 C32.3856897,24.1119208 17.4778828,23.5864554 11.7088483,24.0376238 M34.9562966,45.4728713 C26.1453931,45.4728713 19.8067517,41.8899802 15.6807103,38.3256238 C9.0694,32.6077624 5.49424828,24.5074851 5.94044828,21.438495 C6.0829531,20.448396 6.77073241,19.6254257 7.72493103,19.309703 C11.7648414,17.9730693 36.244931,16.1352079 47.3927931,40.1572277 C47.4485483,40.274804 47.491931,40.3985584 47.5291117,40.5223287 C47.9442538,41.9208396 47.1511503,43.4121505 45.7508152,43.8205465 C41.8038566,44.9839208 38.2101462,45.4728238 34.9571531,45.4728238" id="Fill-4"></path>
                    <path d="M44.9936552,43.9077228 C44.5971034,43.9077228 44.2005517,43.8210851 43.8225903,43.6354376 L28.1029628,35.8632396 C26.7955793,35.2134812 26.2564593,33.6292594 26.9071055,32.323596 C27.5515021,31.017901 29.1439745,30.4856554 30.44514,31.1292832 L46.1647676,38.9014812 C47.472151,39.5512396 48.011271,41.1354614 47.3606248,42.4411248 C46.9021159,43.3693465 45.9664917,43.9077069 44.9936869,43.9077069" id="Fill-5"></path>
                    <path d="M48.8671724,21.4807921 C56.6494207,23.0711287 63.4900966,21.7592554 69.2467586,17.5574653 C74.4390483,13.7580198 77.1839793,8.76411881 78.2621241,5.96712871 C72.5244966,5.5153901 57.6097103,6.05376634 48.8681241,21.4807921 M55.0456069,27.4152079 C51.7864276,27.4152079 48.1989034,26.9201584 44.2519448,25.7629307 C42.8516255,25.3483248 42.0523517,23.8817426 42.4674621,22.4832475 L42.4736641,22.4646812 C42.510829,22.3347327 42.5542117,22.2171564 42.6099669,22.0995802 C53.7567186,-1.92261386 78.2314152,-0.084990099 82.277829,1.25205545 C83.2320276,1.56145743 83.9198703,2.39066931 84.0623117,3.38084752 C84.5022303,6.45015446 80.9332014,14.5504317 74.3220497,20.2616396 C70.1953738,23.825996 63.8567324,27.4150653 55.0464634,27.4150653" id="Fill-6"></path>
                    <path d="M45.0063448,25.849901 C44.0335559,25.849901 43.0979793,25.3115406 42.6394069,24.3833188 C41.9888083,23.0714297 42.5278807,21.4873188 43.8352641,20.8436752 L59.5548917,13.0714772 C60.8622752,12.4155406 62.4484503,12.953901 63.0929262,14.2657901 C63.7435248,15.5714851 63.2044524,17.1556119 61.897069,17.7992554 L46.1774414,25.5714535 C45.79948,25.7632792 45.4029283,25.8499168 45.0063766,25.8499168" id="Fill-7"></path>
                    <path d="M45,58.6720792 C43.5377076,58.6720792 42.3542069,57.4901545 42.3542069,56.029703 L42.3542069,3.22653465 C42.3542069,1.76613069 43.53766,0.584158416 45,0.584158416 C46.46234,0.584158416 47.6457931,1.76608317 47.6457931,3.22653465 L47.6457931,56.029703 C47.6457931,57.4901069 46.46234,58.6720792 45,58.6720792" id="Fill-8"></path>
                </g>
            </g>
        </g>
    </g>
</svg>