<?xml version="1.0" encoding="UTF-8"?>
<svg width="169px" height="158px" viewBox="0 0 169 158" version="1.1" xmlns="http://www.w3.org/2000/svg" xmlns:xlink="http://www.w3.org/1999/xlink">
    <!-- Generator: Sketch 49.1 (51147) - http://www.bohemiancoding.com/sketch -->
    <title>Group 4</title>
    <desc>Created with Sketch.</desc>
    <defs></defs>
    <g id="Mobile---Survey-" stroke="none" stroke-width="1" fill="none" fill-rule="evenodd">
        <g id="Activity-selection---Night" transform="translate(-121.000000, -109.000000)" fill="#FFFFFF">
            <g id="Group-5" transform="translate(0.000000, 109.000000)">
                <g id="Group-4" transform="translate(121.000000, 0.000000)">
                    <path d="M32.6812206,94.3104561 C30.1592837,89.8147368 28.4706943,84.2007018 28.4706943,76.0648421 C28.4706943,50.8016842 50.6416416,35.9216842 55.1373609,33.9595789 C56.5408697,33.4003649 58.5035364,33.6744982 59.6330802,34.8038737 C60.7515083,35.9223018 61.3216697,37.6108912 60.7515083,39.0144 C60.1922943,41.2622035 60.1922943,44.0692772 60.4664276,44.6284351 L60.7515083,44.6284351 L61.036589,44.6284351 C63.5585258,41.2622596 66.0914662,35.9221895 65.2471153,28.6306807 C63.8436065,12.6329263 56.2669048,8.69636491 55.9817118,8.4224 C54.2931223,7.57810526 53.459775,5.33018947 54.018989,3.65271579 C54.578203,1.68999298 56.2667925,0.560505263 58.2295153,0.560505263 C59.3479434,0.560505263 87.7031995,2.80830877 101.738287,19.0913123 C105.104463,23.0166456 107.352322,27.2271719 108.470638,32.0080842 C109.314933,30.3194947 110.159228,28.6419088 110.718442,26.3940491 C111.003522,24.9905404 111.83687,24.1462456 113.240378,23.5870316 C114.358807,23.0278175 115.762315,23.0278175 116.891747,23.8721123 C117.736042,24.4313263 136.255677,35.1001825 139.907045,56.4391298 C141.869768,69.0707088 138.218456,82.5466386 128.678975,96.2959719 L115.203045,99.3662877 C127.834624,84.4868491 133.448659,70.4512 131.2008,57.5473404 C129.238077,46.0340772 121.661431,37.8982175 116.606554,33.9728842 C109.874203,48.8523228 94.4356065,53.9072 93.5912557,53.9072 C91.3434522,54.466414 89.0955364,53.347986 88.2624136,51.1001825 C87.7031995,48.8523789 88.8216276,46.6044632 91.0694311,45.7713404 C91.3545118,45.7713404 96.1243083,44.0827509 100.893993,40.4424982 C101.179073,34.2693053 99.205403,28.9292351 95.2799574,24.1595509 C88.5476065,16.2976561 77.3195364,12.3723228 68.8984837,10.4096561 C71.1462872,14.3349895 73.1090101,19.9490246 73.668168,27.5369544 C75.6308908,49.1487439 59.0739223,57.0106386 58.2295715,57.2969544 C57.6703574,57.5820351 57.1111434,57.5820351 56.540982,57.5820351 C54.8523925,57.5820351 53.4487715,56.7377404 52.6156487,55.0600982 C51.7713539,53.0973754 52.330568,50.8495719 54.3042381,49.7312561 C54.0191574,49.4461754 53.7450241,48.8869614 53.4599434,48.6128281 C52.9007294,47.4944 52.3415153,46.6501053 52.0564346,45.5206175 C45.5980487,50.8494596 36.9030311,60.959214 36.9030311,75.5528982 C36.9030311,88.7436351 41.9579083,93.2393544 48.9754522,97.7238456 L32.6812206,94.3104561 Z M168.251747,147.357474 C166.848238,153.256702 161.519396,157.182035 155.620168,157.182035 C154.50174,157.182035 153.657445,157.182035 152.527957,156.896954 L84.3258522,139.780604 L16.1125188,156.907902 C14.9940908,157.192982 13.8647153,157.192982 13.0203083,157.192982 C10.7725048,157.192982 8.524589,156.633768 6.28795742,155.23026 C3.1957469,153.54167 1.23308023,150.73454 0.388729355,147.368365 C-0.455565382,144.002189 0.103648653,140.636014 1.79223813,137.543804 C3.4808276,134.451593 6.28795742,132.488926 9.65413286,131.644575 L30.7067644,126.315733 L9.65413286,120.986891 C6.28795742,120.142596 3.48093988,118.179874 1.79223813,115.087663 C0.103648653,111.995453 -0.455565382,108.629277 0.388729355,105.263102 C1.23302409,101.896926 3.1957469,99.0899088 6.28795742,97.401207 C9.38016795,95.7126175 12.7463434,95.1534035 16.1125188,95.9976982 L84.3258522,113.114049 L152.539185,95.9867509 C159.556729,94.2981614 166.574273,98.5086877 168.262975,105.526119 C169.951564,112.543663 165.741038,119.561207 158.723607,121.249909 L137.660028,126.304786 L158.712659,131.633628 C165.730203,133.322218 169.940729,140.339874 168.252028,147.357418 L168.251747,147.357474 Z M48.1198171,122.094316 L66.924589,117.324632 L14.1498522,104.133895 L13.0314241,104.133895 C12.1871294,104.133895 11.3428346,104.418975 10.7836206,104.693109 C9.66519251,105.252323 9.09503111,106.381698 8.82089778,107.500126 C8.53581707,108.618554 8.82089778,110.022063 9.38011181,110.866302 C9.93932585,111.710596 11.0687013,112.554891 12.1871294,112.829025 L48.1198171,122.094316 Z M156.748589,112.83986 C159.270526,112.280646 160.673922,109.747649 160.114764,107.225825 C159.55555,105.263102 157.866961,103.859649 155.619045,103.859649 L154.500617,103.859649 L11.9013188,139.781053 C10.7828908,140.066133 9.65351532,140.899481 9.09430128,141.743775 C8.53508725,142.58807 8.25000655,143.991579 8.53508725,145.109951 C8.82016795,146.228379 9.65351532,147.357754 10.4978101,147.916968 C11.6162381,148.476182 12.7456136,148.761263 13.8639855,148.476182 L156.748589,112.83986 Z M156.748589,139.780772 L120.543677,130.800561 L101.738905,135.570246 L154.502414,148.487018 C157.02435,149.046232 159.272098,147.642723 160.116449,145.120842 C160.675663,142.873039 158.998021,140.340211 156.750273,139.781053 L156.748589,139.780772 Z" id="Page-1"></path>
                </g>
            </g>
        </g>
    </g>
</svg>