<?xml version="1.0" encoding="UTF-8"?>
<svg width="162px" height="160px" viewBox="0 0 162 160" version="1.1" xmlns="http://www.w3.org/2000/svg" xmlns:xlink="http://www.w3.org/1999/xlink">
    <!-- Generator: Sketch 49.1 (51147) - http://www.bohemiancoding.com/sketch -->
    <title>Group 2</title>
    <desc>Created with Sketch.</desc>
    <defs></defs>
    <g id="Symbols" stroke="none" stroke-width="1" fill="none" fill-rule="evenodd">
        <g id="nighttime/nighttime" transform="translate(-126.000000, -47.000000)" fill="#FFFFFF">
            <g id="Group-4">
                <g id="Group" transform="translate(126.000000, 47.000000)">
                    <g id="Group-2">
                        <path d="M156.361315,105.645895 C150.891668,121.656076 140.49796,135.399756 126.985263,145.059868 C113.82871,154.453359 97.7202274,160 80.332026,160 C58.1451035,160 38.065679,151.005268 23.5298517,136.470157 C8.99402436,121.935046 0,101.847743 0,79.667983 C0,59.71927 7.28814708,41.4644338 19.3184368,27.419222 C31.5376279,13.1646928 48.6676295,3.24656013 68.0755911,0.274218002 C69.1457417,0.120336627 70.1318789,0.847754692 70.2928509,1.91090417 C70.3907591,2.56838267 70.1459706,3.20487572 69.6913276,3.62453103 C63.9629439,9.61183079 59.3606482,16.6761569 56.227155,24.4756901 C53.1916058,32.015591 51.519932,40.2550666 51.519932,48.9079843 C51.519932,67.0016693 58.8501574,83.3835718 70.7058632,95.2317573 C82.5683732,107.094267 98.9484851,114.417689 117.029636,114.417689 C123.66727,114.417689 130.060133,113.445464 136.061579,111.619927 C142.293649,109.731415 148.133943,106.940637 153.421668,103.40158 C154.309951,102.793073 155.527017,103.044863 156.121486,103.933163 C156.471202,104.457746 156.534158,105.087238 156.345307,105.64679 L156.361315,105.645895 Z M145.715853,62.7421061 C145.534003,62.1545851 145.065376,61.6439868 144.421882,61.4551357 C143.393702,61.1403897 142.302566,61.7139264 141.987784,62.7421061 L138.686336,73.506461 L127.935947,76.8007472 L127.928946,76.8077304 C127.327423,76.9895804 126.830827,77.4582078 126.641976,78.0947008 C126.320229,79.1158794 126.893783,80.2070333 127.928946,80.5287983 L138.686318,83.8302468 L141.987766,94.5736521 L141.987766,94.5806532 C142.169616,95.1821764 142.638244,95.6787724 143.274737,95.8676236 C144.302916,96.1823696 145.394053,95.6088329 145.708834,94.5806532 L149.010283,83.8302647 L159.760671,80.5288162 L159.774656,80.5288162 C160.376179,80.3469662 160.872775,79.8783389 161.061626,79.2418458 C161.376372,78.2136661 160.795834,77.1225301 159.774656,76.8077483 L149.010301,73.5062999 L145.716014,62.7559114 L145.715853,62.7421061 Z M145.596942,75.63276 L143.855328,69.9462756 L142.113715,75.6187935 L142.113715,75.6327779 C141.924864,76.2343011 141.463237,76.723896 140.826744,76.9267494 L135.14026,78.6683628 L140.812778,80.4099763 L140.826762,80.4169774 C141.414283,80.5988274 141.910897,81.0604716 142.113733,81.7039478 L143.855346,87.3904322 L145.59696,81.7179142 L145.59696,81.703912 C145.77881,81.116391 146.247437,80.6197771 146.88393,80.4169416 L152.570414,78.6683449 L146.890913,76.9267315 L146.88393,76.9267315 C146.289408,76.7378804 145.799795,76.269253 145.59696,75.63276 L145.596942,75.63276 Z M115.569124,7.52136109 C115.394257,6.91983783 114.92563,6.43022504 114.282154,6.22738954 C113.253974,5.91264358 112.162838,6.5001646 111.848056,7.52136109 L105.287237,28.8899942 L83.9400912,35.4508127 L83.9261069,35.4577959 C83.3245836,35.639646 82.8349708,36.1082733 82.6321353,36.7447664 C82.3173894,37.7729461 82.9049104,38.8570989 83.9261069,39.1788639 L105.29474,45.7396824 L111.848575,67.093991 L111.855576,67.1009921 C112.030425,67.7025154 112.499071,68.1991114 113.142547,68.3879625 C114.170727,68.7097096 115.254879,68.1291718 115.569661,67.1009921 L122.13048,45.7395213 L143.491951,39.1787027 L143.498934,39.1787027 C144.100457,38.9968527 144.597053,38.5282254 144.785904,37.8847312 C145.10065,36.8565515 144.527113,35.7654154 143.498934,35.4506337 L122.137463,28.8898151 L115.576644,7.53550657 L115.569124,7.52136109 Z M118.716584,31.0153979 L113.708545,14.7183683 L108.714473,31.0084146 L108.707472,31.0153979 C108.525622,31.6169211 108.056995,32.1065339 107.413501,32.3093694 L91.116489,37.324391 L107.399534,42.3184629 L107.413536,42.325464 C108.01506,42.5003309 108.504672,42.9689582 108.707508,43.6124345 L113.715546,59.9024808 L118.709618,43.6194177 L118.716602,43.6124166 C118.898452,43.0108933 119.367079,42.5142973 120.003572,42.3254461 L136.300602,37.3174078 L120.017538,32.3093694 L120.003554,32.3023862 C119.416033,32.1275194 118.919419,31.6658931 118.716584,31.0154158 L118.716584,31.0153979 Z M150.646879,109.653543 C146.415231,112.003663 141.903896,113.913124 137.18969,115.347011 C130.796827,117.277422 124.026154,118.326694 117.03148,118.326694 C97.867036,118.326694 80.5074837,110.555989 67.952024,98.0001716 C55.3831352,85.438266 47.6201296,68.0779795 47.6201296,48.9135529 C47.6201296,39.7718103 49.3897117,31.0358103 52.6142015,23.0344802 C55.2230584,16.5366896 58.7832439,10.5354234 63.1268026,5.19183271 C46.9416835,8.90582791 32.7229657,17.7677048 22.2732135,29.9518007 C10.8373957,43.3110461 3.91273567,60.6779398 3.91273567,79.6686992 C3.91273567,100.770538 12.4737954,119.872312 26.2948282,133.708028 C40.1298274,147.536044 59.2323182,156.090117 80.3341567,156.090117 C96.8899233,156.090117 112.222374,150.823347 124.727698,141.884475 C136.06969,133.777323 145.106863,122.64232 150.646879,109.653543 Z" id="Page-1"></path>
                    </g>
                </g>
            </g>
        </g>
    </g>
</svg>