<?xml version="1.0" encoding="UTF-8"?>
<svg width="160px" height="160px" viewBox="0 0 160 160" version="1.1" xmlns="http://www.w3.org/2000/svg" xmlns:xlink="http://www.w3.org/1999/xlink">
    <!-- Generator: Sketch 49.1 (51147) - http://www.bohemiancoding.com/sketch -->
    <title>Page 1</title>
    <desc>Created with Sketch.</desc>
    <defs></defs>
    <g id="Mobile---Survey-" stroke="none" stroke-width="1" fill="none" fill-rule="evenodd">
        <g id="prepare-a-community-meal" transform="translate(-127.000000, -26.000000)" fill="#8CD9F8">
            <g id="Group-4" transform="translate(22.000000, 26.000000)">
                <g id="Page-1" transform="translate(105.000000, 0.000000)">
                    <path d="M97.4624,118.3504 L62.5376,118.3504 C39.9056,118.3504 21.4944,100.6 21.4944,78.7824 L21.48816,40.3696 C21.48816,38.53216 22.981904,37.0384 24.81936,37.0384 L135.17616,37.0384 C137.01984,37.0384 138.50736,38.532144 138.50736,40.3696 L138.50736,78.7824 C138.5136,100.6016 120.09456,118.3504 97.46416,118.3504 L97.4624,118.3504 Z M28.1568,43.7072 L28.1568,78.7824 C28.1568,96.9264 43.58176,111.688 62.5376,111.688 L97.4624,111.688 C116.4256,111.688 131.8432,96.92544 131.8432,78.7824 L131.8432,43.7072 L28.1568,43.7072 Z" id="Fill-1"></path>
                    <path d="M144.232,43.7056 L15.7759888,43.7056 C13.9385488,43.7056 12.4447888,42.211856 12.4447888,40.3744 C12.4447888,38.536944 13.9385328,37.0432 15.7759888,37.0432 L144.232,37.036944 C146.07568,37.036944 147.5632,38.530688 147.5632,40.368144 C147.56944,42.211824 146.075696,43.705584 144.232,43.705584 L144.232,43.7056 Z" id="Fill-2"></path>
                    <path d="M97.2432,29.5312 C95.39952,29.5312 93.912,28.037456 93.912,26.2 L93.912,9.768 C93.912,7.93056 95.399504,6.4368 97.2432,6.4368 C99.086896,6.4368 100.5744,7.930544 100.5744,9.768 L100.5744,26.2 C100.5744,28.03744 99.086896,29.5312 97.2432,29.5312 Z" id="Fill-3"></path>
                    <path d="M80,29.5312 C78.16256,29.5312 76.6688,28.037456 76.6688,26.2 L76.6688,3.3312 C76.6688,1.49376 78.162544,0 80,0 C81.84368,0 83.3312,1.493744 83.3312,3.3312 L83.3312,26.2 C83.3312,28.03744 81.843696,29.5312 80,29.5312 Z" id="Fill-4"></path>
                    <path d="M62.7632,29.5312 C60.92576,29.5312 59.432,28.037456 59.432,26.2 L59.42576,9.768 C59.42576,7.93056 60.919504,6.4368 62.75696,6.4368 C64.5944,6.4368 66.08816,7.930544 66.08816,9.768 L66.0944,26.2 C66.0944,28.03744 64.600656,29.5312 62.7632,29.5312 Z" id="Fill-5"></path>
                    <path d="M24.8192,65.9808 C23.406704,65.9808 22.09424,65.074544 21.64416,63.65584 C20.169152,58.99952 18.00048,56.14336 15.20048,55.16832 C10.62544,53.574576 5.2568,57.1184 5.20672,57.15584 C3.681728,58.180832 1.61296,57.780832 0.58176048,56.262096 C-0.44948752,54.743344 -0.061983584,52.680816 1.45676848,51.643376 C1.78176,51.418384 9.581728,46.174576 17.350528,48.855856 C22.263008,50.549616 25.850528,54.849616 28.006848,61.637136 C28.563104,63.393456 27.594352,65.268336 25.838048,65.824656 C25.494304,65.930896 25.1568,65.980896 24.819296,65.980896 L24.8192,65.9808 Z" id="Fill-6"></path>
                    <path d="M135.1808,65.9808 C134.849552,65.9808 134.512048,65.9308 134.174544,65.824544 C132.418224,65.268288 131.449584,63.393344 132.005744,61.643264 C134.162064,54.855744 137.736944,50.555744 142.649424,48.861984 C150.418224,46.174464 158.218224,51.424544 158.543184,51.649504 C160.06192,52.687008 160.45568,54.761984 159.411936,56.280704 C158.374432,57.799456 156.305696,58.186944 154.786976,57.155712 C154.73072,57.118224 149.380736,53.561952 144.793216,55.168192 C141.999456,56.1432 139.830656,58.999392 138.355776,63.649472 C137.912032,65.074464 136.593216,65.980672 135.180736,65.980672 L135.1808,65.9808 Z" id="Fill-7"></path>
                    <path d="M145.0752,160 L14.924792,160 C13.087352,160 11.593592,158.512496 11.593592,156.6688 C11.593592,154.82512 13.087336,153.3376 14.924792,153.3376 L145.0752,153.3376 C146.91888,153.3376 148.4064,154.825104 148.4064,156.6688 C148.41264,158.51248 146.918896,160 145.0752,160 Z" id="Fill-8"></path>
                    <path d="M31.6128,152.724805 C29.80032,152.724805 28.3128,151.268549 28.2816,149.449765 C28.206592,144.831045 30.80032,139.29344 34.45664,136.2872 L35.400384,135.518448 C37.787904,133.593488 38.619104,132.837168 38.731584,130.999728 C38.806576,129.76848 39.556576,128.681008 40.675264,128.168528 C41.794016,127.656032 43.112704,127.806032 44.087744,128.556032 C45.281488,129.474784 46.587744,130.312352 47.881504,131.149792 C50.531424,132.862272 53.544064,134.812352 55.712704,137.537312 C56.01896,137.212304 56.36896,136.893568 56.76896,136.56856 C59.51264,134.39352 64.2064,131.91864 67.88144,131.406 C69.744,131.143504 71.544,131.062256 73.28144,130.981008 C77.22512,130.793504 80.63776,130.631008 83.51264,128.512208 C84.268896,127.968464 85.19392,127.749712 86.11264,127.924704 C87.025136,128.099712 87.82512,128.643456 88.31264,129.43096 C89.700144,131.65592 91.74384,133.206 94.1064,134.99976 C94.918896,135.618512 95.7376,136.237264 96.54384,136.89352 L97.081344,137.324768 C97.162592,137.39352 97.250096,137.456016 97.331344,137.531024 C98.09384,135.768464 99.318864,134.093584 101.287664,132.606064 C102.318912,131.831056 103.568944,131.16232 104.887664,130.462384 C106.256416,129.731136 109.100144,128.224944 109.400144,127.349904 C109.787648,126.218656 110.7564,125.381104 111.937584,125.162384 C113.112576,124.943632 114.318864,125.36864 115.093904,126.281136 L116.631408,128.106096 C119.062608,131.024816 121.168848,133.537296 124.256368,135.862416 L124.843872,136.29992 C127.718912,138.43112 132.068832,141.6436 131.700192,146.656245 C131.562688,148.493685 129.943872,149.850005 128.131392,149.731285 C126.293952,149.593786 124.918912,147.993845 125.056352,146.162485 C125.156352,144.824981 122.487552,142.84376 120.887552,141.66248 L120.262544,141.193728 C117.050064,138.775008 114.781264,136.256288 112.550064,133.612448 C111.16256,134.6812 109.543824,135.543648 108.031344,136.349888 C106.950096,136.924896 105.925104,137.46864 105.318864,137.931136 C102.975184,139.699936 102.762544,141.949856 102.750064,145.962341 C102.76256,146.206085 102.76256,146.456085 102.743808,146.712341 C102.65632,148.518581 101.181312,149.881141 99.331328,149.881141 C97.518848,149.837392 96.075008,148.356149 96.075008,146.549941 L96.075008,146.174933 C95.981264,145.068677 94.750016,143.999888 92.918688,142.531248 L92.34368,142.062496 C91.599936,141.45 90.837424,140.881248 90.08736,140.306176 C88.21856,138.887424 86.31232,137.443616 84.63104,135.568736 C80.94352,137.293696 77.08736,137.474976 73.60608,137.637536 C71.94352,137.718784 70.37488,137.793792 68.81232,138.006288 C66.54352,138.32504 62.90608,140.218768 60.9248,141.787568 C60.331056,142.26256 60.187296,142.537568 59.737296,144.081333 L59.6248,144.537589 C59.331056,145.775093 58.881056,147.643829 57.26848,148.743829 C56.255984,149.431333 54.94352,149.512581 53.84976,148.950085 C52.762256,148.381333 52.06848,147.262565 52.056,146.037605 C51.999744,141.95632 49.06224,139.85008 44.26848,136.75008 C44.112224,136.65008 43.955984,136.543824 43.799728,136.443824 C42.655984,138.231344 41.062288,139.512624 39.581008,140.706384 L38.693504,141.425136 C36.618464,143.137616 34.905984,146.756341 34.949824,149.331382 C34.981072,151.168821 33.51232,152.687702 31.674784,152.718901 C31.649792,152.72515 31.63104,152.72515 31.612288,152.72515 L31.6128,152.724805 Z" id="Fill-9"></path>
                </g>
            </g>
        </g>
    </g>
</svg>