<?xml version="1.0" encoding="UTF-8"?>
<svg width="172px" height="160px" viewBox="0 0 172 160" version="1.1" xmlns="http://www.w3.org/2000/svg" xmlns:xlink="http://www.w3.org/1999/xlink">
    <!-- Generator: Sketch 49.1 (51147) - http://www.bohemiancoding.com/sketch -->
    <title>Group</title>
    <desc>Created with Sketch.</desc>
    <defs></defs>
    <g id="Mobile---Survey-" stroke="none" stroke-width="1" fill="none" fill-rule="evenodd">
        <g id="Survey-Q2" transform="translate(-119.000000, -109.000000)" fill="#8CD9F8">
            <g id="Group-3" transform="translate(0.000000, 62.000000)">
                <g id="Group-2" transform="translate(79.000000, 47.000000)">
                    <g id="Group" transform="translate(40.000000, 0.000000)">
                        <path d="M138.518018,110.3054 C138.518018,101.37822 146.003026,93.8932127 155.165741,93.8932127 C164.09292,93.8932127 171.813463,101.37822 171.813463,110.3054 C171.813463,119.477768 164.328456,126.717587 155.165741,126.717587 C145.757837,126.953267 138.518018,119.468356 138.518018,110.3054 Z M85.9062535,159.777496 C95.0786215,159.777496 102.553976,152.537677 102.553976,143.365309 C102.553976,134.43813 94.833433,126.953122 85.9062535,126.953122 C76.7338855,126.953122 69.258531,134.43813 69.258531,143.365309 C69.258531,152.537677 76.49835,160.013032 85.9062535,159.777496 Z M16.6477316,126.952157 C25.8200997,126.952157 33.2954541,119.712338 33.2954541,110.53997 C33.2954541,101.61279 25.5749111,94.1277828 16.6477316,94.1277828 C7.47536362,94.1277828 9.16594454e-06,101.61279 9.16594454e-06,110.53997 C-0.00940259876,119.712338 7.23041641,127.197104 16.6477316,126.952157 Z M138.518018,92.2058522 C137.792154,92.9317164 136.585517,92.9317164 135.859557,92.2058522 L113.659376,70.0056712 C106.900281,76.5195777 97.7279126,80.6202112 87.593614,81.1105882 L87.593614,112.963379 C87.593614,113.924923 86.8677497,114.895879 85.6611132,114.895879 C84.6995687,114.895879 83.7286125,114.170015 83.7286125,112.963379 L83.7380484,81.1009351 C73.6042324,80.6201629 64.4318644,76.5195777 57.6722867,69.9960181 L35.4721057,92.1961991 C34.7462414,92.9220633 33.5396049,92.9220633 32.8136442,92.1961991 C32.0877799,91.4703348 32.0877799,90.2636983 32.8136442,89.5377376 L55.0138252,67.3375566 C48.7354541,60.0977376 44.8800092,50.9253695 44.8800092,40.5453997 C44.8800092,18.1000302 62.9795567,-5.68434189e-14 85.4254089,-5.68434189e-14 C107.871261,-5.68434189e-14 125.970809,18.0995475 125.970809,40.5453997 C125.970809,50.9244042 122.105711,60.0967722 115.836993,67.3375566 L138.037174,89.5377376 C139.24381,90.2730377 139.24381,91.4796742 138.517946,92.2056109 L138.518018,92.2058522 Z M122.831744,40.5569834 C122.831744,20.0441629 106.184021,3.63149321 85.9062535,3.63149321 C65.393433,3.63149321 48.9807633,20.2792157 48.9807633,40.5569834 C48.9807633,60.8340271 65.6378976,77.4824736 85.9062535,77.4824736 C106.419074,77.4824736 122.831744,60.8347511 122.831744,40.5569834 Z M100.141427,26.3225339 C100.141427,18.3568024 93.8630559,12.0880845 85.9069775,12.0880845 C78.1864345,12.0880845 71.672528,18.601991 71.672528,26.3225339 C71.672528,34.2882655 78.1864345,40.5569834 85.9069775,40.5569834 C93.872709,40.8020754 100.141427,34.5238009 100.141427,26.3225339 Z M95.8050167,26.5582142 C95.8050167,32.3462081 91.4591947,36.6920302 85.9067362,36.6920302 C80.1187422,36.6920302 76.0084556,32.1106727 76.0084556,26.5582142 C76.0084556,21.2509442 80.5898131,16.4243982 85.9067362,16.4243982 C91.6947301,16.1887179 95.8050167,20.7702202 95.8050167,26.5582142 Z M108.107158,60.8339306 C108.833023,49.9742021 105.938977,41.7729351 101.348063,39.8403861 C95.5600695,37.1819246 89.0365099,43.2151071 88.3202505,44.1862081 C87.113614,45.3928446 86.3877497,45.6379367 85.661789,45.6379367 C85.4166969,45.6379367 84.7002445,45.6379367 83.0033274,44.1862081 C82.5225552,43.2246637 76.0086969,37.6723017 70.2110499,39.8403861 C65.8652279,41.7728869 62.9712309,49.9742021 63.6971434,60.8339306 L108.107158,60.8339306 Z M71.9080635,43.9410196 C74.566525,42.7343831 78.9026939,45.8735204 80.354519,47.3157406 C82.2870197,49.0031493 83.9744285,49.9742021 85.661789,49.9742021 C87.5942897,49.9742021 89.2816985,48.7675656 90.9690589,47.3157406 C92.4207874,46.1091041 96.7570529,42.7343831 99.4155144,43.9410196 C100.867243,44.4217919 103.280612,47.0802051 103.761336,56.9688326 L68.0521359,56.9688326 C68.0521359,46.8350166 70.4654089,44.4217436 71.9078221,43.9410196 L71.9080635,43.9410196 Z" id="Page-1"></path>
                    </g>
                </g>
            </g>
        </g>
    </g>
</svg>