<?xml version="1.0" encoding="UTF-8"?>
<svg width="161px" height="159px" viewBox="0 0 161 159" version="1.1" xmlns="http://www.w3.org/2000/svg" xmlns:xlink="http://www.w3.org/1999/xlink">
    <!-- Generator: Sketch 49.1 (51147) - http://www.bohemiancoding.com/sketch -->
    <title>Group 3</title>
    <desc>Created with Sketch.</desc>
    <defs></defs>
    <g id="Mobile---Survey-" stroke="none" stroke-width="1" fill="none" fill-rule="evenodd">
        <g id="Star-gazing" transform="translate(-128.000000, -48.000000)" fill="#FFFFFF">
            <g id="Group-2" transform="translate(0.000000, 47.000000)">
                <g id="Group-3" transform="translate(128.000000, 0.000000)">
                    <path d="M141.67342,2.67673943 C141.381758,2.02395721 140.847038,1.51007276 140.17342,1.25313054 C139.506754,1.00312165 138.763696,1.02395721 138.117954,1.32257054 L46.882398,45.8914594 C45.6115713,46.516455 45.0491535,48.0233705 45.5976691,49.3220372 L46.2921047,50.9400994 L14.2921047,66.2664994 C13.6462735,66.5651128 13.1462735,67.1067839 12.9032158,67.7734505 C12.660158,68.4401172 12.694878,69.1762239 12.9934913,69.8219839 L14.590718,73.606695 L1.65329932,79.0858061 C0.986632658,79.3566328 0.458845992,79.8913528 0.188019325,80.5580194 C-0.0758740084,81.2316372 -0.0619717861,81.9816283 0.229686881,82.6413972 L4.66026466,92.9331305 C4.93804244,93.5997972 5.47276244,94.1206328 6.1394291,94.3845261 C6.80609577,94.6484194 7.55608688,94.6345172 8.21587355,94.3359217 L21.1742735,88.8429439 L22.7715002,92.627655 C23.3270558,93.9401528 24.8200335,94.5791217 26.1533669,94.0859839 L59.4511447,81.8011839 L60.1247624,83.4192461 C60.541438,84.4053617 61.5067002,85.0373083 62.5761402,85.0373083 C62.888638,85.0373083 63.1942024,84.9817528 63.4858647,84.877575 L69.2636424,82.7803305 L69.2636424,83.4053261 C69.2775269,90.1969705 73.9649758,96.0927928 80.5831091,97.6275483 L44.3893313,155.849779 C43.5976691,157.099771 43.9726735,158.759468 45.2296158,159.544179 C46.4796069,160.335842 48.1323713,159.960855 48.9240158,158.710846 L81.1177935,106.780171 L81.1177935,157.272624 C81.1177935,158.744837 82.3122469,159.939291 83.7844602,159.939291 C85.2566735,159.939291 86.4511269,158.744837 86.4511269,157.272624 L86.4511269,105.717059 L119.30446,158.710846 C119.672514,159.321957 120.26974,159.759451 120.964176,159.926117 C121.658611,160.092784 122.387785,159.974729 122.991909,159.599735 C123.596034,159.224741 124.026629,158.620571 124.186362,157.926117 C124.346078,157.231682 124.221082,156.502508 123.839145,155.905317 L87.6453669,97.5373083 C93.9856335,95.7942505 98.388478,90.0372194 98.4023447,83.4608639 C98.3884602,79.8219305 97.0134558,76.3289528 94.5411891,73.6622861 L158.8043,50.3698417 C159.498736,50.1198505 160.054291,49.599015 160.345971,48.9253972 C160.637651,48.2517794 160.644585,47.4948372 160.352905,46.8142861 L141.67342,2.67673943 Z M8.51431088,88.4545172 L6.18791088,82.9405617 L16.6949313,78.4961172 L18.9726202,83.8294505 L18.9726202,83.9683483 L8.51431088,88.4545172 Z M26.6316424,88.2739661 L18.8954647,70.0517439 L48.3674647,55.8295217 L57.2563535,76.9121883 L26.6316424,88.2739661 Z M83.8743091,92.7392105 C78.7562647,92.7392105 74.6035535,88.5864994 74.6035535,83.468455 C74.6035535,78.3434772 78.7562647,74.1976994 83.8743091,74.1976994 C85.3118024,74.1907483 86.7354647,74.5310328 88.0131535,75.1907483 C91.172798,76.7324194 93.172798,79.9477261 93.151998,83.4615039 C93.151998,88.5864817 88.9992869,92.7393705 83.8741313,92.7393705 L83.8743091,92.7392105 Z M89.2076424,69.9267661 C88.5826469,70.1420372 87.4298647,69.3434417 86.7354647,69.1767572 L86.7354647,69.1837083 C84.4577758,68.6975928 82.089598,68.7948194 79.8535091,69.4684372 C76.4785758,70.4198328 73.5479091,72.5379483 71.5687091,75.4407039 C71.4437135,75.6351572 71.0895447,76.4684728 70.9089935,76.5240461 L63.9785047,79.0518683 L51.5340602,49.558535 L137.866505,7.35053498 L154.40126,46.3229794 L89.2076424,69.9267661 Z" id="Page-1"></path>
                </g>
            </g>
        </g>
    </g>
</svg>