<?xml version="1.0" encoding="UTF-8"?>
<svg width="144px" height="160px" viewBox="0 0 144 160" version="1.1" xmlns="http://www.w3.org/2000/svg" xmlns:xlink="http://www.w3.org/1999/xlink">
    <!-- Generator: Sketch 49.1 (51147) - http://www.bohemiancoding.com/sketch -->
    <title>Page 1</title>
    <desc>Created with Sketch.</desc>
    <defs></defs>
    <g id="Mobile---Survey-" stroke="none" stroke-width="1" fill="none" fill-rule="evenodd">
        <g id="Activity-selection---Night" transform="translate(-117.000000, -425.000000)" fill="#FFFFFF">
            <g id="Group" transform="translate(0.000000, 425.000000)">
                <path d="M185.239719,0.295481054 C179.691311,1.6857831 176.036944,6.63474636 174.417025,12.6806239 C172.797107,18.7265015 173.013956,26.1500117 175.188715,33.7712362 C177.357042,41.3924606 181.08798,47.8656035 185.705286,52.3491953 C190.322593,56.8326239 196.107082,59.4218484 201.655491,58.0316443 C207.203899,56.6413423 210.858266,51.692379 212.478184,45.6465015 C214.098103,39.6006239 213.932258,32.2280525 211.757515,24.6065015 C209.589189,16.985277 205.807311,10.4610321 201.189842,5.97793003 C196.183474,1.27768514 190.979393,-0.814233231 185.239637,0.295481054 L185.239719,0.295481054 Z M196.885107,10.7354811 C200.405433,14.15393 203.690005,19.6002974 205.552209,26.1436443 C207.414413,32.6869913 207.45278,38.9369504 206.221858,43.547726 C204.984617,48.1586647 202.650429,50.8755627 199.812389,51.5834811 C196.974348,52.2913831 193.536797,51.060526 190.01647,47.6420933 C186.496144,44.2236606 183.262674,38.777277 181.40047,32.23393 C179.538266,25.6905831 179.44896,19.3895219 180.679801,14.7792362 C181.917042,10.1682974 184.251229,7.50250146 187.08927,6.7945831 C190.966821,6.30988105 194.793433,8.73972595 196.885189,10.7359709 L196.885107,10.7354811 Z M131.897352,29.1599709 C127.91776,33.2607055 127.286413,39.5617668 128.867964,45.7934402 C130.449597,52.0242974 134.212291,58.5358076 139.74176,64.21793 C145.271066,69.9067464 151.533923,73.7522974 157.593189,75.3785831 C163.651801,77.0048525 169.818984,76.3033341 173.798576,72.2025831 C177.778168,68.1018321 178.409515,61.8007872 176.827964,55.5691137 C175.246413,49.3374402 171.483637,42.8778484 165.954168,37.1952362 C160.424862,31.5064198 154.111066,27.6097668 148.052127,25.9834811 C142.42078,24.5357749 135.647719,25.4158729 131.897842,29.1594811 L131.897352,29.1599709 Z M233.867964,27.1127872 C228.498005,28.7008035 224.86927,33.6816035 223.096209,39.6510729 C221.323311,45.6269096 221.22127,52.8270729 222.994168,60.1735219 C224.767066,67.5204606 228.102576,73.6811137 232.330984,77.8845423 C236.559229,82.0873178 241.935556,84.4342566 247.305515,82.8463382 C252.675474,81.2583219 256.355311,76.2264198 258.128209,70.2571137 C259.901107,64.281277 260.003148,57.1320525 258.23025,49.785277 C256.457352,42.4383382 253.121842,36.2265831 248.893433,32.0236443 C244.70976,27.7442974 239.390903,25.8884606 233.867964,27.1129504 L233.867964,27.1127872 Z M146.725107,32.4380117 C151.342413,33.6752525 156.750576,36.8768688 161.495556,41.7555627 C166.240372,46.6344198 169.365433,52.2082974 170.577189,56.9596443 C171.782544,61.7109913 171.125662,65.3078892 169.091213,67.3996443 C167.056764,69.49793 163.55554,70.1738484 158.93807,68.9366402 C154.320601,67.6994321 148.912601,64.4977831 144.167621,59.6190892 C139.422642,54.7403953 136.297744,49.1663545 135.085989,44.4150076 C133.880633,39.6636606 134.537515,36.0667627 136.571964,33.9750076 C139.747964,31.4494566 143.274821,31.5323953 146.725107,32.4380117 Z M244.436127,36.9916443 C247.624862,40.1549096 250.564944,45.3144198 252.076454,51.5771137 C253.587931,57.8398076 253.364715,63.9176851 252.025433,68.4195627 C250.686152,72.9220933 248.428535,75.5687872 245.769107,76.353277 C243.109678,77.1377668 239.927311,76.0854239 236.738576,72.9220933 C233.549842,69.7587627 230.660699,64.6504198 229.149352,58.387726 C227.637874,52.1250321 227.81007,45.9962157 229.149352,41.4930321 C230.488633,36.9905015 232.797352,34.3438076 235.45678,33.5593178 C238.862331,32.6473341 242.523066,35.1281994 244.430005,36.9905015 L244.436127,36.9916443 Z M188.632046,75.4291953 C184.448372,77.8399709 181.680535,82.667726 178.98927,88.7390729 C173.217515,103.075726 169.735393,117.80193 169.397433,132.55295 C169.269874,139.593767 169.939523,145.709847 172.579801,150.263969 C177.911393,159.485845 191.183882,163.535641 203.817352,156.252541 C213.893923,150.289602 219.410495,141.297114 229.512046,135.111318 C230.742919,134.403416 234.448209,133.816673 238.64478,133.319155 C249.199556,132.52833 257.738658,127.305114 260.086413,117.400787 C261.259882,112.171236 260.775197,106.220869 257.82878,101.125195 C245.398903,85.5447872 224.021433,77.0941749 204.537352,74.0966239 C199.301433,73.3823382 193.255393,72.8402484 188.638086,75.4295382 L188.632046,75.4291953 Z M133.032046,78.4522157 C126.992535,78.5415055 121.443961,80.7225831 118.669757,85.5185015 C115.895553,90.3080525 116.801185,96.2264198 119.747569,101.487808 C122.693953,106.749195 127.725858,111.679155 134.211899,115.40993 C140.69794,119.140706 147.458103,121.028542 153.496797,120.939236 C159.536307,120.849946 165.135817,118.668869 167.910021,113.87295 C170.684225,109.083399 169.778593,103.165032 166.832209,97.9036443 C163.88576,92.6420933 158.853923,87.7122974 152.367882,83.9815219 C145.881842,80.2505831 139.07074,78.3629096 133.03074,78.4522157 L133.032046,78.4522157 Z M203.561025,80.6014402 C221.801025,82.4636443 245.58225,94.2685423 252.132454,104.402257 C254.109433,107.814175 254.530495,112.150991 253.66945,115.971073 C251.794511,124.357522 244.683491,125.996542 237.872225,126.825604 C233.790593,127.310306 229.734429,127.469734 226.226837,129.485032 C216.335246,135.607481 210.729368,144.43393 200.532144,150.575643 C190.423735,156.398337 181.642348,152.903479 178.217042,146.991479 C176.750201,144.453195 175.844633,139.115236 175.959409,132.661195 C176.788486,118.11393 179.333123,104.293848 184.983572,91.3534402 C187.432552,85.8305015 190.40447,81.9784198 191.909613,81.1175219 C195.602184,79.8802811 199.715654,80.052477 203.555001,80.6073178 L203.561025,80.6014402 Z M133.343882,84.9509913 C137.87825,84.8872198 143.675474,86.3859464 149.192046,89.5555627 C154.708617,92.7315627 158.828454,96.9216035 161.041515,100.869359 C163.254576,104.817114 163.484127,108.190828 162.119327,110.544134 C160.754527,112.89744 157.731572,114.364216 153.197205,114.43442 C148.662837,114.498191 142.916552,113.050485 137.39998,109.880787 C131.883409,106.704787 127.763572,102.463644 125.550511,98.5160525 C123.33745,94.5682974 123.05696,91.1945831 124.421678,88.841277 C125.786478,86.4879709 128.809433,85.0211953 133.343801,84.9509913 L133.343882,84.9509913 Z" id="Page-1"></path>
            </g>
        </g>
    </g>
</svg>