<?xml version="1.0" encoding="UTF-8"?>
<svg width="131px" height="137px" viewBox="0 0 131 137" version="1.1" xmlns="http://www.w3.org/2000/svg" xmlns:xlink="http://www.w3.org/1999/xlink">
    <!-- Generator: Sketch 49.1 (51147) - http://www.bohemiancoding.com/sketch -->
    <title>Group Copy</title>
    <desc>Created with Sketch.</desc>
    <defs></defs>
    <g id="Mobile---Survey-" stroke="none" stroke-width="1" fill="none" fill-rule="evenodd">
        <g id="Survey-Start" transform="translate(-141.000000, -80.000000)" fill="#8CD9F8">
            <g id="Group-Copy" transform="translate(141.000000, 80.000000)">
                <path d="M129.383664,44.3412422 L116.143415,39.0244614 C116.121259,39.0170699 116.099104,39.0170699 116.076967,39.0096973 C115.877585,38.9358389 115.66344,38.8841551 115.441902,38.8841551 L115.419747,38.8841551 L115.412355,38.8841551 L115.3902,38.8841551 L86.4215421,39.2016874 L64.8803092,12.4334682 C64.850781,12.3965485 64.8138423,12.3817844 64.7843141,12.3522373 C64.7252388,12.2857704 64.6513993,12.2266951 64.577541,12.1676197 C64.4741544,12.0864077 64.3707678,12.0125493 64.2452445,11.953474 C64.1566221,11.9091816 64.07541,11.8796345 63.9794149,11.8427148 C63.9203396,11.8205592 63.8686558,11.7836395 63.8021889,11.7762479 L10.3470382,0.079330137 C9.57166726,-0.0905043836 8.76676808,0.241792055 8.34584918,0.913776438 C7.91755767,1.58576082 7.9618689,2.44973534 8.44923575,3.08472438 L20.2643042,18.3114175 L1.8475426,18.7175534 C1.05740753,18.739709 0.363267534,19.24184 0.104810547,19.9876827 C-0.153646439,20.7335255 0.0752634241,21.5605614 0.688172465,22.0701595 L57.3267752,68.8351647 L20.898556,108.267228 L20.8837919,108.282011 C20.8394807,108.326303 20.8247166,108.39277 20.7804053,108.444454 C20.6696273,108.58476 20.5662596,108.732439 20.4997927,108.902293 C20.4554815,109.020443 20.4554815,109.145985 20.4333259,109.264136 C20.4111703,109.382287 20.3742505,109.493046 20.3816421,109.618588 C20.3890147,109.81797 20.4407174,110.00996 20.5071653,110.20195 C20.5219484,110.246261 20.5219484,110.290573 20.5367125,110.327492 L20.5440851,110.334884 C20.5440851,110.342256 20.5514766,110.342256 20.5514766,110.349648 L31.8497067,135.870196 C31.8718623,135.92188 31.9161736,135.966191 31.9457018,136.017875 C31.9826215,136.084342 32.0195601,136.143417 32.0638525,136.202492 C32.167239,136.342799 32.2779982,136.460949 32.410913,136.564336 C32.4478327,136.593864 32.4847714,136.630803 32.5290637,136.667722 C32.7136812,136.785873 32.913044,136.874496 33.1272086,136.933552 C33.1493642,136.940925 33.1641284,136.955708 33.1789114,136.955708 C33.3118262,136.985236 33.4521325,137 33.5850473,137 C33.8361127,137 34.0650415,136.940925 34.2865599,136.852321 C34.3087155,136.84493 34.3234796,136.84493 34.3456352,136.837557 C34.397319,136.815401 34.4342388,136.77109 34.47855,136.741562 C34.6188563,136.667704 34.7517711,136.5791 34.8625303,136.468341 C34.9289971,136.409265 34.980681,136.342799 35.0397563,136.268959 C35.1283599,136.158181 35.2022182,136.047422 35.2612936,135.921899 C35.2982133,135.833276 35.335133,135.752045 35.3720527,135.656069 C35.3868358,135.604366 35.416364,135.560055 35.4311281,135.508371 L42.5867116,102.624673 L102.053369,76.2836863 C102.090289,76.2689222 102.105072,76.2393751 102.141992,76.224611 C102.304454,76.14338 102.437368,76.0399934 102.577675,75.9218427 C102.614594,75.884923 102.658906,75.8553759 102.695825,75.8110836 C102.82874,75.6560132 102.954282,75.4861597 103.035513,75.2941696 L112.066574,53.7397038 L129.294456,47.8911504 C130.04028,47.6326934 130.549802,46.9385534 130.579349,46.1484184 C130.586741,45.3509107 130.114138,44.6346151 129.383078,44.3392384 L129.383664,44.3412422 Z M112.576777,42.7018967 L101.182703,69.9143625 L88.4889711,42.9684447 L112.576777,42.7018967 Z M65.7588588,67.3887734 L58.6845629,23.67302 L82.9498779,41.558009 L65.7588588,67.3887734 Z M65.5151659,24.0057323 L65.4117793,19.1246912 L74.9154423,30.9397597 L65.5151659,24.0057323 Z M14.6290837,4.8880063 L61.5415221,15.1449981 L61.6670642,21.1780556 L57.2068286,17.8919542 C56.8671407,17.6408888 56.4683963,17.507974 56.0105577,17.5227381 L24.9662289,18.2094866 L14.6290837,4.8880063 Z M54.4827275,21.3330693 L62.0001358,67.7955899 L7.00808096,22.3879186 L54.4827275,21.3330693 Z M61.7490892,72.4913707 L47.8738508,84.6314008 L60.2428097,71.2435104 L61.7490892,72.4913707 Z M32.9638015,129.041124 L24.5011878,109.93096 L41.0054207,92.0680885 L32.9638015,129.041124 Z M44.815733,92.3331241 L65.9051577,73.8721268 C65.9273133,73.8573627 65.9347048,73.8352071 65.9494689,73.8130515 C65.979016,73.7908959 66.0085442,73.7761318 66.0306999,73.7539762 C66.0750111,73.7096649 66.1193034,73.6579811 66.1562421,73.6062784 C66.1931618,73.561986 66.2153174,73.5176748 66.2448456,73.4807551 L85.2378045,44.9468921 L98.7438456,73.6206455 L43.5740922,98.0485359 L44.815733,92.3331241 Z M114.008555,49.0824118 L116.460229,43.2338584 L123.239054,45.9513241 L114.008555,49.0824118 Z" id="Page-1"></path>
            </g>
        </g>
    </g>
</svg>