<?xml version="1.0" encoding="UTF-8"?>
<svg width="196px" height="206px" viewBox="0 0 196 206" version="1.1" xmlns="http://www.w3.org/2000/svg" xmlns:xlink="http://www.w3.org/1999/xlink">
    <!-- Generator: Sketch 49.1 (51147) - http://www.bohemiancoding.com/sketch -->
    <title>Group Copy</title>
    <desc>Created with Sketch.</desc>
    <defs></defs>
    <g id="Desktop---chat" stroke="none" stroke-width="1" fill="none" fill-rule="evenodd">
        <g id="Enter-chat" transform="translate(-102.000000, -80.000000)" fill="#8CD9F8">
            <g id="Group-Copy" transform="translate(102.000000, 80.000000)">
                <path d="M194.205146,66.6376534 L174.331505,58.6410099 C174.298249,58.6298928 174.264993,58.6298928 174.231766,58.6188041 C173.932494,58.5077183 173.611061,58.4299838 173.278533,58.4299838 L173.245277,58.4299838 L173.234183,58.4299838 L173.200927,58.4299838 L129.718912,58.9075647 L97.3854775,18.6471303 C97.3411556,18.5916016 97.2857107,18.5693959 97.2413887,18.5249558 C97.1527165,18.4249871 97.0418834,18.3361355 96.9310218,18.247284 C96.7758383,18.1251379 96.6206549,18.0140521 96.4322442,17.9252005 C96.2992217,17.8585831 96.1773222,17.8141431 96.0332334,17.7586144 C95.9445612,17.7252915 95.8669837,17.6697628 95.7672168,17.6586457 L15.5309256,0.0660300354 C14.3670922,-0.189407636 13.1589369,0.310379028 12.5271368,1.32106947 C11.8842703,2.3317599 11.9507816,3.63121092 12.6823202,4.58625893 L30.4167624,27.4877929 L2.77316525,28.0986369 C1.58717088,28.1319598 0.545265315,28.8871842 0.157320847,30.0089604 C-0.230623621,31.1307367 0.112970554,32.3746306 1.03294829,33.1410857 L86.0476075,103.477458 L31.3687756,162.784802 L31.3466146,162.807037 C31.2801034,162.873654 31.2579424,162.973623 31.1914312,163.051357 C31.025153,163.262383 30.8699979,163.484498 30.7702311,163.739964 C30.7037198,163.917667 30.7037198,164.106488 30.6704642,164.284191 C30.6372086,164.461894 30.581792,164.62848 30.5928866,164.8173 C30.6039529,165.117178 30.6815589,165.405939 30.7812974,165.694699 C30.8034867,165.761345 30.8034867,165.827991 30.8256477,165.883519 L30.8367139,165.894637 C30.8367139,165.905725 30.8478086,165.905725 30.8478086,165.916842 L47.8064753,204.300731 C47.8397309,204.378466 47.9062422,204.445111 47.9505641,204.522846 C48.0059807,204.622815 48.0614256,204.711666 48.1279085,204.800518 C48.283092,205.011544 48.4493417,205.189247 48.6488471,205.344744 C48.7042637,205.389156 48.7597086,205.444713 48.8261915,205.500242 C49.1033028,205.677945 49.4025467,205.811237 49.7240083,205.90006 C49.7572639,205.911148 49.7794249,205.933383 49.8016142,205.933383 C50.0011196,205.977794 50.2117196,206 50.411225,206 C50.7880748,206 51.1316974,205.911148 51.4641969,205.777885 C51.4974525,205.766768 51.5196135,205.766768 51.5528691,205.755679 C51.6304466,205.722357 51.6858632,205.655711 51.7523745,205.611299 C51.9629745,205.500213 52.1624799,205.36695 52.3287297,205.200364 C52.4284965,205.111512 52.5060741,205.011544 52.5947463,204.900486 C52.7277404,204.733872 52.838602,204.567286 52.9272742,204.378494 C52.9826908,204.245202 53.0381073,204.123028 53.0935239,203.978676 C53.1157133,203.900913 53.1600352,203.834267 53.1821961,203.756533 L63.9227418,154.298181 L153.182317,114.680322 C153.237734,114.658116 153.259923,114.613676 153.31534,114.59147 C153.559195,114.469296 153.758701,114.313798 153.969301,114.136095 C154.024717,114.080566 154.091228,114.036126 154.146645,113.969509 C154.34615,113.736277 154.53459,113.480811 154.656517,113.19205 L168.212157,80.7733023 L194.071244,71.9768523 C195.190727,71.5881231 195.955521,70.5441097 195.999872,69.3557161 C196.010966,68.1562338 195.301589,67.0788975 194.204267,66.6346396 L194.205146,66.6376534 Z M169,64 L151.97119,105 L133,64.4015978 L169,64 Z M98.4954191,102 L88,36 L124,63.00192 L98.4954191,102 Z M98.1523004,36.43616 L98,29 L112,47 L98.1523004,36.43616 Z M22,7 L92.8105043,22.741192 L93,32 L86.2676377,26.9568885 C85.7549064,26.5715836 85.1530342,26.367602 84.4619641,26.3902602 L37.6030786,27.4441988 L22,7 Z M82.6539086,32 L94,102 L11,33.5892261 L82.6539086,32 Z M93,108.864163 L72,127 L90.7202649,107 L93,108.864163 Z M49.8188534,194 L37,165.055414 L62,138 L49.8188534,194 Z M66.8679835,139.389477 L98.5959166,111.577159 C98.6292486,111.554916 98.6403687,111.521538 98.6625805,111.488159 C98.7070326,111.454781 98.7514563,111.432538 98.7847882,111.39916 C98.8514522,111.332403 98.9180877,111.254539 98.9736599,111.176646 C99.0292037,111.109918 99.0625356,111.043161 99.1069593,110.98754 L127.68087,68 L148,111.198291 L65,148 L66.8679835,139.389477 Z M171,74 L174.718481,65 L185,69.1817506 L171,74 Z" id="Page-1"></path>
            </g>
        </g>
    </g>
</svg>