<?xml version="1.0" encoding="UTF-8"?>
<svg width="23px" height="24px" viewBox="0 0 23 24" version="1.1" xmlns="http://www.w3.org/2000/svg" xmlns:xlink="http://www.w3.org/1999/xlink">
    <!-- Generator: Sketch 49.1 (51147) - http://www.bohemiancoding.com/sketch -->
    <title>Group</title>
    <desc>Created with Sketch.</desc>
    <defs></defs>
    <g id="Symbols" stroke="none" stroke-width="1" fill="none" fill-rule="evenodd">
        <g id="mobile/chat-header" transform="translate(-16.000000, -16.000000)" fill="#000000">
            <g id="Group" transform="translate(16.000000, 16.000000)">
                <path d="M22.7462993,7.76361011 L20.4185968,6.83196232 C20.4147018,6.83066713 20.4108067,6.83066713 20.4069149,6.82937524 C20.3718626,6.8164332 20.3342147,6.80737676 20.2952674,6.80737676 L20.2913723,6.80737676 L20.2900728,6.80737676 L20.2861778,6.80737676 L15.193342,6.86301725 L11.4062849,2.1724812 C11.4010936,2.16601184 11.3945997,2.16342476 11.3894084,2.15824728 C11.3790227,2.14660044 11.3660414,2.1362488 11.3530567,2.12589716 C11.3348808,2.11166655 11.3167049,2.09872451 11.2946373,2.08837287 C11.279057,2.08061162 11.2647795,2.07543415 11.2479031,2.06896478 C11.2375174,2.0650825 11.2284311,2.05861314 11.2167459,2.05731794 L1.81906139,0.00769281966 C1.68274727,-0.022066909 1.54124195,0.0361606634 1.46724229,0.153911006 C1.39194648,0.271661348 1.39973662,0.423053699 1.48541817,0.534321429 L3.56256666,3.20246131 L0.324807287,3.2736276 C0.185897566,3.27750988 0.0638642605,3.36549719 0.0184262217,3.49618956 C-0.0270118172,3.62688194 0.0132316887,3.77180162 0.120984183,3.86109737 L10.0783356,12.0556262 L3.67407132,18.9652197 L3.67147571,18.9678101 C3.66368558,18.9755713 3.66108997,18.9872182 3.65329983,18.9962746 C3.63382449,19.0208602 3.61565193,19.0467376 3.60396673,19.0765007 C3.59617659,19.0972039 3.59617659,19.1192024 3.59228152,19.1399057 C3.58838645,19.160609 3.58189578,19.1800171 3.58319524,19.2020156 C3.58449138,19.2369528 3.59358098,19.2705948 3.60526287,19.3042368 C3.6078618,19.3120014 3.6078618,19.3197659 3.6104574,19.3262353 L3.61175354,19.3275305 C3.61175354,19.3288224 3.61305301,19.3288224 3.61305301,19.3301176 L5.59933872,23.8020269 C5.60323379,23.8110834 5.61102393,23.8188479 5.61621514,23.8279044 C5.62270581,23.8395512 5.62919981,23.8499028 5.63698662,23.8602545 C5.6551625,23.8848401 5.67463452,23.9055433 5.69800161,23.9236595 C5.70449229,23.9288337 5.71098628,23.9353064 5.7187731,23.9417757 C5.75122979,23.962479 5.78627876,23.9780081 5.82392999,23.9883565 C5.82782506,23.9896484 5.83042066,23.9922388 5.83301959,23.9922388 C5.85638668,23.9974129 5.88105323,24 5.90442032,24 C5.9485589,24 5.98880573,23.9896484 6.02774977,23.9741226 C6.03164484,23.9728274 6.03424044,23.9728274 6.03813551,23.9715355 C6.04722179,23.9676532 6.05371246,23.9598886 6.0615026,23.9547145 C6.08616915,23.9417724 6.10953624,23.9262466 6.12900826,23.9068385 C6.14069347,23.8964869 6.14977975,23.8848401 6.16016549,23.8719013 C6.17574244,23.8524899 6.18872711,23.8330818 6.19911286,23.8110867 C6.20560353,23.7955576 6.2120942,23.7813236 6.21858488,23.7645059 C6.22118381,23.7554462 6.22637502,23.7476816 6.22897062,23.7386252 L7.48695822,17.9764872 L17.9414959,13.3608142 C17.9479865,13.3582271 17.9505855,13.3530496 17.9570762,13.3504625 C17.9856378,13.3362286 18.0090049,13.3181124 18.0336714,13.2974091 C18.0401621,13.2909398 18.0479522,13.2857623 18.0544429,13.278001 C18.07781,13.2508284 18.0998809,13.2210654 18.1141618,13.1874233 L19.7018676,9.41048182 L22.730616,8.3856527 C22.8617356,8.34036385 22.9513122,8.21873123 22.9565067,8.0802776 C22.9578062,7.94053209 22.8747202,7.81501719 22.7461963,7.76325898 L22.7462993,7.76361011 Z M19.7915639,7.47635121 L17.7884283,12.2447316 L15.5568064,7.52305782 L19.7915639,7.47635121 Z M11.5607383,11.8021782 L10.3170415,4.14196309 L14.583006,7.2759103 L11.5607383,11.8021782 Z M11.5178959,4.20026354 L11.49972,3.34496946 L13.1705118,5.41529787 L11.5178959,4.20026354 Z M2.57186653,0.850306545 L10.8193093,2.64761661 L10.8413802,3.70477598 L10.0572484,3.12895968 C9.99752951,3.08496603 9.92742824,3.06167566 9.84693791,3.06426275 L4.38918868,3.18460017 L2.57186653,0.850306545 Z M9.57833768,3.73193869 L10.8999359,11.8734638 L1.2320559,3.91677761 L9.57833768,3.73193869 Z M10.8558006,12.6962951 L8.41646389,14.8235658 L10.5909891,12.4776353 L10.8558006,12.6962951 Z M5.79520219,22.6053837 L4.30743212,19.2567517 L7.20895931,16.1266802 L5.79520219,22.6053837 Z M7.87883139,16.1731218 L11.5864584,12.9382419 C11.5903534,12.9356549 11.5916529,12.9317726 11.5942485,12.9278903 C11.5994431,12.924008 11.6046343,12.9214209 11.6085293,12.9175386 C11.6163195,12.9097741 11.6241063,12.9007176 11.6306003,12.8916579 C11.637091,12.8838966 11.640986,12.8761321 11.6461772,12.8696627 L14.985235,7.8697368 L17.359665,12.8941754 L7.66054469,17.1746208 L7.87883139,16.1731218 Z M20.0432777,8.5943948 L20.4742943,7.56956568 L21.6660458,8.04574121 L20.0432777,8.5943948 Z" id="Page-1"></path>
            </g>
        </g>
    </g>
</svg>