<?xml version="1.0" encoding="UTF-8"?>
<svg width="17px" height="16px" viewBox="0 0 17 16" version="1.1" xmlns="http://www.w3.org/2000/svg" xmlns:xlink="http://www.w3.org/1999/xlink">
    <!-- Generator: Sketch 49.1 (51147) - http://www.bohemiancoding.com/sketch -->
    <title>Page 1</title>
    <desc>Created with Sketch.</desc>
    <defs></defs>
    <g id="Symbols" stroke="none" stroke-width="1" fill="none" fill-rule="evenodd">
        <g id="mobile/message" transform="translate(-381.000000, -21.000000)" fill="#000000">
            <g id="Group-3" transform="translate(335.000000, 16.000000)">
                <g id="Group-2" transform="translate(39.000000, 1.000000)">
                    <path d="M20.3983252,3.82561063 C20.3968165,3.80372911 20.3930419,3.7833562 20.386252,3.76298329 C20.3832327,3.75543834 20.3809687,3.74789146 20.3779513,3.74034651 C20.3658781,3.71469252 20.3515409,3.68979186 20.3304137,3.66941895 C20.3100398,3.64904604 20.285138,3.63395614 20.2594828,3.62263678 C20.2519375,3.61886431 20.2443922,3.61660044 20.236845,3.6135813 C20.2164712,3.60679161 20.1960973,3.60301914 20.1749701,3.6015086 C20.1681782,3.60075527 20.1613882,3.6 20.1538429,3.6 C20.1281877,3.60075527 20.1025306,3.60452774 20.0776307,3.6135813 L3.75846091,9.55856376 C3.66338359,9.59327323 3.6,9.68381843 3.6,9.78568492 C3.6,9.88754755 3.66338359,9.97809275 3.75921621,10.0128061 L11.2643348,12.7360174 L13.9876734,20.2407911 C14.0223845,20.3358641 14.1129339,20.4 14.2148051,20.4 C14.315919,20.4 14.4064684,20.3366174 14.4419367,20.2415464 L20.3864181,3.92235443 C20.395472,3.89745378 20.3992447,3.87104645 20.4,3.8461458 C20.4,3.83935612 20.3984913,3.83331977 20.3984913,3.82577289 L20.3983252,3.82561063 Z M4.5475982,9.78507839 L19.2180444,4.43986927 L11.3893635,12.26819 L4.5475982,9.78507839 Z M14.213731,19.4507664 L11.7305052,12.609316 L19.5584134,4.78176794 L14.213731,19.4507664 Z" id="Page-1" transform="translate(12.000000, 12.000000) rotate(45.000000) translate(-12.000000, -12.000000) "></path>
                </g>
            </g>
        </g>
    </g>
</svg>